<?xml version="1.0" standalone="no"?>
<!DOCTYPE svg PUBLIC "-//W3C//DTD SVG 20010904//EN"
 "http://www.w3.org/TR/2001/REC-SVG-20010904/DTD/svg10.dtd">
<svg version="1.0" xmlns="http://www.w3.org/2000/svg"
 width="700.000000pt" height="700.000000pt" viewBox="0 0 700.000000 700.000000"
 preserveAspectRatio="xMidYMid meet">
<metadata>
Created by potrace 1.11, written by Peter Selinger 2001-2013
</metadata>
<g transform="translate(0.000000,700.000000) scale(0.100000,-0.100000)"
fill="#000000" stroke="none">
<path d="M2663 6490 c-83 -20 -112 -61 -147 -210 -2 -8 -23 -91 -46 -185 -23
-93 -43 -177 -45 -185 -2 -8 -11 -46 -20 -85 -9 -38 -18 -77 -20 -85 -2 -8
-38 -154 -80 -325 -42 -170 -78 -319 -81 -330 -4 -22 -9 -41 -84 -350 -29
-115 -53 -217 -55 -225 -2 -8 -8 -35 -15 -60 -7 -25 -14 -52 -15 -60 -2 -8
-11 -44 -20 -80 -9 -36 -18 -76 -21 -90 -3 -14 -10 -43 -16 -65 -5 -22 -11
-47 -13 -55 -2 -8 -8 -35 -15 -60 -7 -25 -14 -56 -16 -70 -3 -14 -8 -34 -11
-45 -4 -11 -8 -24 -9 -30 -1 -5 -16 -68 -34 -140 -17 -71 -33 -137 -35 -145
-2 -8 -22 -91 -45 -185 -23 -93 -44 -181 -47 -194 -2 -14 -6 -28 -8 -31 -3 -4
-7 -30 -11 -57 -7 -64 12 -111 61 -149 65 -50 109 -46 435 36 157 39 293 73
303 75 9 2 45 11 80 20 65 17 85 22 115 29 9 2 37 9 62 16 25 7 52 13 60 15 8
2 98 24 200 50 102 25 194 48 205 51 11 3 31 7 45 10 14 3 66 16 116 30 51 13
99 24 107 24 12 0 9 -21 -15 -117 -15 -65 -30 -127 -33 -138 -2 -11 -9 -40
-16 -65 -6 -25 -12 -49 -13 -55 -6 -32 -130 -538 -141 -580 -8 -27 -35 -138
-61 -245 -25 -107 -71 -293 -100 -413 -30 -119 -56 -227 -58 -240 -5 -23 -155
-638 -181 -742 -9 -33 -17 -67 -19 -75 -20 -79 -110 -453 -116 -481 -11 -59 0
-98 39 -139 71 -74 191 -77 262 -6 14 14 57 92 94 173 38 82 92 198 121 258
28 61 97 207 152 325 55 118 119 256 142 305 23 50 60 128 82 175 21 47 51
110 65 140 15 30 41 87 58 125 18 39 52 111 75 160 23 50 74 158 112 240 39
83 86 183 104 223 35 74 54 116 167 357 35 77 84 181 107 230 23 50 55 117 70
150 15 33 53 113 84 178 31 65 56 120 56 121 0 2 26 59 59 127 32 68 70 149
84 179 13 30 44 96 67 145 23 50 57 122 75 160 18 39 47 102 66 140 18 39 34
72 34 75 1 3 17 39 37 80 19 41 66 140 103 220 37 80 84 179 103 220 47 98 49
160 8 215 -34 45 -95 74 -145 70 -32 -3 -725 -170 -871 -210 -64 -18 -664
-165 -697 -171 -22 -4 -21 -4 7 73 16 43 88 238 159 433 72 195 135 364 140
375 4 11 29 79 55 150 26 72 53 146 61 165 8 19 46 123 85 230 39 107 75 204
79 215 5 11 15 36 21 55 7 19 23 64 35 100 13 35 22 79 20 97 -4 39 -34 84
-78 115 l-32 23 -680 2 c-374 0 -695 -2 -712 -7z"/>
</g>
</svg>
